<?xml version="1.0" encoding="utf-8"?>
<!-- Generator: Adobe Illustrator 24.1.2, SVG Export Plug-In . SVG Version: 6.00 Build 0)  -->
<svg version="1.1" id="Layer_1" xmlns="http://www.w3.org/2000/svg" xmlns:xlink="http://www.w3.org/1999/xlink" x="0px" y="0px"
	 viewBox="0 0 1320 799" style="enable-background:new 0 0 1320 799;" xml:space="preserve">
<style type="text/css">
	.st0{fill:url(#SVGID_1_);}
</style>
<g>
	<path d="M697.8,297.48c0.55,0,1.6,0.13,2.48,1.02l56.84,56.83c0.88,0.88,1.02,1.93,1.02,2.47c0,0.52-0.12,1.52-0.94,2.34
		l-56.39,56.4c-0.81,0.81-1.81,0.94-2.33,0.94c-0.55,0-1.6-0.13-2.49-1.02l-56.84-56.83c-1.33-1.33-1.37-3.53-0.09-4.81l56.39-56.4
		C696.29,297.6,697.28,297.48,697.8,297.48 M697.8,285.48c-3.93,0-7.85,1.48-10.82,4.45l-56.39,56.4
		c-5.97,5.97-5.93,15.77,0.09,21.79l56.84,56.83c3.02,3.02,7,4.53,10.97,4.53c3.93,0,7.85-1.48,10.82-4.45l56.39-56.4
		c5.97-5.97,5.93-15.77-0.09-21.79l-56.84-56.83C705.75,286.99,701.77,285.48,697.8,285.48L697.8,285.48z"/>
</g>
<g>
	<linearGradient id="SVGID_1_" gradientUnits="userSpaceOnUse" x1="688.8958" y1="357.878" x2="832.8959" y2="357.878">
		<stop  offset="0" style="stop-color:#EFBF04"/>
		<stop  offset="0.3678" style="stop-color:#FDD017"/>
		<stop  offset="0.43" style="stop-color:#F7C91E"/>
		<stop  offset="0.703" style="stop-color:#DFAF37"/>
		<stop  offset="0.7218" style="stop-color:#DAAA39"/>
		<stop  offset="0.8108" style="stop-color:#C7973F"/>
		<stop  offset="0.9024" style="stop-color:#BC8C43"/>
		<stop  offset="1" style="stop-color:#B88844"/>
	</linearGradient>
	<path class="st0" d="M760.9,297.88c0.59,0,1.73,0.14,2.68,1.09l56.22,56.22c1.45,1.45,1.45,3.91,0,5.37l-56.22,56.22
		c-0.95,0.95-2.09,1.09-2.68,1.09c-0.59,0-1.73-0.14-2.68-1.09l-56.22-56.22c-1.45-1.45-1.45-3.91,0-5.37l56.22-56.22
		C759.16,298.02,760.3,297.88,760.9,297.88 M760.9,285.88c-4.05,0-8.1,1.54-11.17,4.61l-56.22,56.22c-6.14,6.14-6.14,16.19,0,22.34
		l56.22,56.22c3.07,3.07,7.12,4.61,11.17,4.61c4.05,0,8.1-1.54,11.17-4.61l56.22-56.22c6.14-6.14,6.14-16.19,0-22.34l-56.22-56.22
		C768.99,287.41,764.94,285.88,760.9,285.88L760.9,285.88z"/>
</g>
</svg>
